<?xml version="1.0" encoding="UTF-8"?>
<svg id="Layer_2" data-name="Layer 2" xmlns="http://www.w3.org/2000/svg" xmlns:xlink="http://www.w3.org/1999/xlink" viewBox="0 0 261.18 134.16">
  <defs>
    <style>
      .cls-1 {
        fill: url(#linear-gradient-2);
      }

      .cls-2 {
        fill: #36a9e1;
        font-family: EurostileRegular, Eurostile;
        font-size: 10.69px;
      }

      .cls-3 {
        fill: #fff;
      }

      .cls-4 {
        fill: none;
      }

      .cls-5 {
        fill: #575756;
      }

      .cls-6 {
        letter-spacing: 3.16em;
      }

      .cls-7 {
        letter-spacing: 0em;
      }

      .cls-8 {
        clip-path: url(#clippath-3);
      }

      .cls-9 {
        letter-spacing: 3.16em;
      }

      .cls-10 {
        clip-path: url(#clippath-2);
      }

      .cls-11 {
        letter-spacing: 3.16em;
      }

      .cls-12 {
        fill: url(#linear-gradient);
      }
    </style>
    <clipPath id="clippath">
      <rect class="cls-4" x="93.18" width="168" height="134.16"/>
    </clipPath>
    <clipPath id="clippath-2">
      <path class="cls-4" d="M225.13,34.69h0M225.13,34.69s0,0,0,0c0,0,0,0,0,0M225.13,34.69s0,0,0,0c0,0,0,0,0,0M225.13,34.69h0s0,0,0,0M225.13,34.69s0,0,0,0c0,0,0,0,0,0M225.12,34.68s0,0,0,0c0,0,0,0,0,0M225.12,34.68s0,0,0,0c0,0,0,0,0,0M225.12,34.68s0,0,0,0c0,0,0,0,0,0M225.12,34.68s0,0,0,0c0,0,0,0,0,0M225.11,34.68s0,0,0,0c0,0,0,0,0,0M225.11,34.68s0,0,0,0c0,0,0,0,0,0M225.11,34.67s0,0,0,0c0,0,0,0,0,0M225.1,34.67s0,0,0,0t0,0M225.1,34.67h0M225.1,34.67s0,0,0,0c0,0,0,0,0,0M225.1,34.67h0s0,0,0,0M225.09,34.67h0s0,0,0,0M225.09,34.67h0M208.64,45.18c-2.89,1.88-5.76,3.78-8.65,5.65-3.45,2.23-6.91,4.44-10.36,6.67-3.21,2.08-6.39,4.21-9.63,6.24-.82.51-1.14,1.06-1.14,2.01.02,6.6,0,13.21,0,19.82,0,3.37-.01,6.75,0,10.12,0,.23.1.5.25.67.07.08.44.03.54-.08.98-1.08,2.2-2.06,2.8-3.33.56-1.17.58-2.67.58-4.03.05-7.04,0-14.08.06-21.11,0-.51.36-1.19.78-1.48,1.83-1.28,3.75-2.46,5.63-3.68,5.44-3.53,10.88-7.08,16.33-10.61,4.46-2.89,8.92-5.78,13.4-8.62,2.24-1.42,4.34-2.95,5.35-5.52.37-1.5.6-3.19.51-3.24-.38.18-11.35,7.18-16.45,10.51"/>
    </clipPath>
    <linearGradient id="linear-gradient" x1="-268.15" y1="384.82" x2="-267.15" y2="384.82" gradientTransform="translate(12589.86 17876.47) scale(46.28 -46.28)" gradientUnits="userSpaceOnUse">
      <stop offset="0" stop-color="#1d71b8"/>
      <stop offset="0" stop-color="#1d71b8"/>
      <stop offset=".15" stop-color="#36a9e1"/>
      <stop offset=".38" stop-color="#1d71b8"/>
      <stop offset=".72" stop-color="#36a9e1"/>
      <stop offset=".89" stop-color="#2788c8"/>
      <stop offset="1" stop-color="#1d71b8"/>
    </linearGradient>
    <clipPath id="clippath-3">
      <path class="cls-4" d="M129.18,35.21c0,.14,0,.29.02.43.49,2.69,1.81,4.88,4.06,6.45,1.51,1.05,3.08,2.01,4.62,3.01,4.29,2.79,8.56,5.58,12.85,8.36,3.11,2.01,6.22,4.01,9.34,6.02,2.85,1.84,5.73,3.65,8.54,5.54,3.29,2.21,2.72,1,2.78,4.83,0,.06,0,.11,0,.17,0,6.66.01,13.33,0,19.99,0,1.47.18,2.88,1.23,4.01.68.74,1.37,1.47,2.09,2.18.15.14.49.28.6.2.16-.11.27-.41.29-.64.04-.69.02-1.38.02-2.07,0-9.37-.02-18.75,0-28.12,0-.84-.33-1.32-.99-1.75-3.68-2.36-7.35-4.74-11.02-7.12-3.29-2.14-6.59-4.28-9.89-6.42-4.17-2.69-8.36-5.36-12.53-8.07-2.7-1.75-5.36-3.56-8.05-5.33-1.21-.8-2.45-1.54-3.85-2.42-.05.46-.07.6-.08.74"/>
    </clipPath>
    <linearGradient id="linear-gradient-2" x1="-268.15" y1="384.8" x2="-267.15" y2="384.8" gradientTransform="translate(12578.14 17930.3) scale(46.43 -46.43)" xlink:href="#linear-gradient"/>
  </defs>
  <text class="cls-2" transform="translate(0 122.63)"><tspan class="cls-6" x="0" y="0">DES</tspan><tspan class="cls-9" x="119.64" y="0">I</tspan><tspan class="cls-11" x="155.61" y="0">G</tspan><tspan class="cls-7" x="196.01" y="0">N</tspan></text>
  <path class="cls-5" d="M7.26,98.78v9.18h-.52c-1.67,0-3.09-.58-4.24-1.75-1.16-1.17-1.73-2.6-1.73-4.29v-46.2h.66c1.57,0,2.92.51,4.02,1.53,1.11,1.02,1.71,2.33,1.81,3.92v37.62Z"/>
  <path class="cls-5" d="M71.81,89.3c-.7.35-.92.59-.67.71.25.12.66.26,1.23.41.57.15,1.17.34,1.79.59.63.25.96.65,1.01,1.2v9.85c0,1.59-.58,2.96-1.75,4.11-1.17,1.15-2.6,1.72-4.29,1.72H20.24v-46.13c0-1.74.57-3.2,1.72-4.37,1.14-1.17,2.51-1.75,4.1-1.75h43.07c1.7,0,3.12.58,4.29,1.75,1.17,1.17,1.75,2.63,1.75,4.37v22.99c-.05.1-.12.35-.22.75-.1.4-.28.83-.53,1.31-.25.47-.58.93-1.01,1.38-.42.45-.95.82-1.6,1.12M68.68,62.13H26.51v24.04h42.17v-24.04ZM68.68,92.66H26.51v8.73h42.17v-8.73Z"/>
  <path class="cls-5" d="M202.99,100.98c.36.7.58,1.42.65,2.16.07.75,0,1.51-.21,2.28-.22.77-.57,1.46-1.05,2.05l-.43.45c-3.13-2.73-23.84-23.86-24.8-24.71-1,.89-21.97,21.98-25.09,24.71l-.22-.15c-1.1-1.29-1.57-2.77-1.4-4.4.17-1.64.85-3.03,2.05-4.18l19.75-20.31-19.73-13.26c-1.25-1.14-1.95-2.54-2.09-4.18-.15-1.64.34-3.06,1.44-4.26l.22-.3c3.12,2.79,24.1,16.89,25.05,17.74.91-.85,21.87-15.21,24.99-18l.43.45c.48.65.83,1.34,1.05,2.09.22.75.3,1.49.25,2.24-.05.75-.24,1.47-.58,2.17-.33.7-.79,1.29-1.36,1.79l-19.95,13.52,19.54,20.31c.62.5,1.12,1.1,1.48,1.79"/>
  <path class="cls-5" d="M143.53,101.39c0,1.89-.55,3.45-1.65,4.67-1.09,1.22-2.48,1.83-4.18,1.83h-43.07c-1.69,0-3.13-.57-4.29-1.72-1.17-1.14-1.76-2.51-1.76-4.1v-9.63c0-.6.31-1.04.93-1.34.62-.29,1.23-.52,1.83-.67.6-.15,1.03-.29,1.31-.41.27-.12.03-.36-.71-.71-.75-.25-1.33-.63-1.76-1.16-.42-.52-.76-1.03-1.01-1.53-.25-.55-.44-1.14-.6-1.79v-23.14c0-1.7.58-3.12,1.76-4.29,1.16-1.17,2.6-1.75,4.29-1.75h43.07c1.69,0,3.09.61,4.18,1.83,1.1,1.22,1.65,2.77,1.65,4.66h-48.44v24.04h33.21l6.5,6.49h-39.71v8.73h48.44Z"/>
  <path class="cls-3" d="M178.66,98.73h-3.25c-4.69,0-5.94-9.5-5.94-9.5v-22.31h15.58v23.01s-1.37,8.81-6.39,8.81"/>
  <rect class="cls-3" x="181.79" y="56.94" width="36.27" height="2.39" transform="translate(.05 116.43) rotate(-32.47)"/>
  <rect class="cls-3" x="153.54" y="40" width="2.39" height="36.27" transform="translate(22.61 157.47) rotate(-57.53)"/>
  <g class="cls-10">
    <rect class="cls-12" x="178.84" y="34.67" width="46.35" height="61.77"/>
  </g>
  <g class="cls-8">
    <rect class="cls-1" x="129.18" y="34.47" width="46.44" height="62.01"/>
  </g>
</svg>